<?xml version="1.0" standalone="no"?><!DOCTYPE svg PUBLIC "-//W3C//DTD SVG 1.1//EN" "http://www.w3.org/Graphics/SVG/1.1/DTD/svg11.dtd"><svg t="1644577004755" class="icon" viewBox="0 0 1024 1024" version="1.1" xmlns="http://www.w3.org/2000/svg" p-id="1140" xmlns:xlink="http://www.w3.org/1999/xlink" width="200" height="200"><defs><style type="text/css"></style></defs><path d="M750.77239228 148.54994964H259.16854095c-26.95941925 1.39045716-48.58875275 23.17428589-49.74746703 50.21095277v651.19743347c0 0.54073334 0 1.00421906 0.07724761 1.5449524 0 0.23174287 0 0.46348572 0.07724762 0.77247619 0 0.23174287 0 0.54073334 0.07724762 0.77247619 0 0.30899047 0.07724763 0.61798096 0.07724762 0.92697145 0 0.23174287 0.07724763 0.3862381 0.07724762 0.61798095 0.07724763 0.30899047 0.07724763 0.69522858 0.15449524 1.00421905 0 0.15449524 0.07724763 0.30899047 0.07724763 0.54073334 0.07724763 0.30899047 0.15449524 0.69522858 0.23174285 1.00421905 0.07724763 0.15449524 0.07724763 0.30899047 0.07724762 0.46348572l0.23174286 0.92697144c0.07724763 0.15449524 0.07724763 0.3862381 0.15449522 0.54073334 0.07724763 0.30899047 0.15449524 0.61798096 0.3089905 0.84972381 0.07724763 0.23174287 0.15449524 0.3862381 0.23174286 0.61798096 0.07724763 0.23174287 0.23174287 0.54073334 0.30899048 0.77247619l0.23174286 0.69522858c0.07724763 0.23174287 0.23174287 0.46348572 0.30899047 0.69522858 0.07724763 0.23174287 0.23174287 0.54073334 0.30899048 0.7724762 0.07724763 0.15449524 0.15449524 0.3862381 0.30899048 0.54073334 0.15449524 0.30899047 0.30899047 0.54073334 0.3862381 0.8497238 0.07724763 0.15449524 0.15449524 0.30899047 0.30899048 0.46348572 0.15449524 0.30899047 0.30899047 0.54073334 0.46348572 0.84972382 0.07724763 0.15449524 0.15449524 0.30899047 0.30899047 0.46348572 0.15449524 0.30899047 0.3862381 0.54073334 0.54073334 0.84972381 0.07724763 0.15449524 0.23174287 0.30899047 0.30899048 0.46348572 0.15449524 0.30899047 0.3862381 0.54073334 0.61798095 0.84972382 0.15449524 0.15449524 0.23174287 0.30899047 0.38623809 0.46348572 0.15449524 0.23174287 0.3862381 0.46348572 0.54073335 0.69522858 0.15449524 0.23174287 0.3862381 0.3862381 0.54073334 0.61798096 0.15449524 0.15449524 0.30899047 0.3862381 0.46348572 0.54073333 0.3862381 0.3862381 0.69522858 0.7724762 1.08146668 1.15871429 0.3862381 0.3862381 0.7724762 0.69522858 1.15871428 1.08146668 0.15449524 0.15449524 0.3862381 0.30899047 0.54073335 0.46348571 0.23174287 0.15449524 0.3862381 0.3862381 0.61798095 0.54073334 0.23174287 0.23174287 0.46348572 0.3862381 0.69522858 0.54073333 0.15449524 0.15449524 0.30899047 0.23174287 0.46348571 0.38623812 0.30899047 0.23174287 0.54073334 0.3862381 0.84972383 0.61798094 0.15449524 0.07724763 0.30899047 0.23174287 0.46348571 0.30899049 0.30899047 0.15449524 0.54073334 0.3862381 0.84972381 0.54073333 0.15449524 0.07724763 0.30899047 0.15449524 0.46348572 0.30899048 0.30899047 0.15449524 0.54073334 0.30899047 0.84972382 0.46348572 0.15449524 0.07724763 0.30899047 0.15449524 0.46348571 0.30899047 0.30899047 0.15449524 0.54073334 0.30899047 0.84972382 0.38623811 0.15449524 0.07724763 0.3862381 0.15449524 0.54073334 0.30899047 0.23174287 0.15449524 0.54073334 0.23174287 0.7724762 0.30899048 0.23174287 0.07724763 0.46348572 0.23174287 0.69522856 0.30899048l0.69522859 0.23174287c0.23174287 0.07724763 0.54073334 0.23174287 0.7724762 0.30899046 0.23174287 0.07724763 0.3862381 0.15449524 0.61798096 0.23174287 0.30899047 0.07724763 0.61798096 0.23174287 0.84972381 0.30899047 0.15449524 0.07724763 0.3862381 0.07724763 0.54073334 0.15449525l0.92697143 0.23174285c0.15449524 0.07724763 0.30899047 0.07724763 0.54073334 0.15449524 0.30899047 0.07724763 0.69522858 0.15449524 1.00421905 0.23174286 0.15449524 0 0.30899047 0.07724763 0.54073334 0.07724762 0.30899047 0.07724763 0.69522858 0.15449524 1.00421906 0.15449523 0.23174287 0 0.3862381 0.07724763 0.61798096 0.07724763 0.30899047 0.07724763 0.61798096 0.07724763 0.92697143 0.07724761 0.23174287 0 0.54073334 0.07724763 0.7724762 0.07724763 0.23174287 0 0.46348572 0.07724763 0.7724762 0.07724762 0.54073334 0 1.00421906 0.07724763 1.54495239 0.07724762s1.08146667 0 1.54495239-0.07724762c0.23174287 0 0.46348572 0 0.7724762-0.07724762 0.23174287 0 0.54073334 0 0.77247619-0.07724763 0.30899047 0 0.61798096-0.07724763 0.92697144-0.07724761 0.23174287 0 0.3862381-0.07724763 0.61798095-0.07724763 0.30899047-0.07724763 0.69522858-0.07724763 1.00421905-0.15449523 0.15449524 0 0.30899047-0.07724763 0.54073334-0.07724762 0.30899047-0.07724763 0.69522858-0.15449524 1.00421906-0.23174286 0.15449524-0.07724763 0.30899047-0.07724763 0.54073334-0.15449524l0.92697143-0.23174285c0.15449524-0.07724763 0.3862381-0.07724763 0.54073333-0.15449525 0.30899047-0.07724763 0.61798096-0.15449524 0.84972383-0.30899047 0.23174287-0.07724763 0.3862381-0.15449524 0.61798096-0.23174287 0.23174287-0.07724763 0.54073334-0.23174287 0.77247619-0.30899046l0.69522857-0.23174287c0.23174287-0.07724763 0.46348572-0.23174287 0.69522858-0.30899048 0.23174287-0.07724763 0.54073334-0.23174287 0.7724762-0.30899048 0.15449524-0.07724763 0.3862381-0.15449524 0.54073333-0.30899047 0.30899047-0.15449524 0.54073334-0.30899047 0.84972383-0.38623811 0.15449524-0.07724763 0.30899047-0.15449524 0.46348571-0.30899047 0.30899047-0.15449524 0.54073334-0.30899047 0.84972381-0.46348572 0.15449524-0.07724763 0.30899047-0.15449524 0.46348573-0.30899048 0.30899047-0.15449524 0.61798096-0.3862381 0.84972381-0.54073333 0.15449524-0.07724763 0.30899047-0.23174287 0.46348572-0.30899049 0.30899047-0.15449524 0.54073334-0.3862381 0.84972381-0.61798094 0.15449524-0.15449524 0.30899047-0.23174287 0.46348572-0.38623812 0.23174287-0.15449524 0.46348572-0.3862381 0.7724762-0.54073333 0.23174287-0.15449524 0.3862381-0.30899047 0.61798095-0.54073334 0.15449524-0.15449524 0.3862381-0.30899047 0.54073335-0.46348571 0.3862381-0.30899047 0.7724762-0.69522858 1.08146667-1.08146668l241.01257323-241.01257324 241.01257325 241.01257324c6.25705719 6.25705719 14.52255249 9.34696198 22.78804779 9.26971436h0.38623809c17.45796203 0 31.67152404-14.1363144 31.67152405-31.67152405V199.37888336C799.36114502 172.11047363 777.80905915 150.09490203 750.77239228 148.54994964z" fill="#333333" p-id="1141"></path></svg>