<?xml version="1.0" standalone="no"?><!DOCTYPE svg PUBLIC "-//W3C//DTD SVG 1.1//EN" "http://www.w3.org/Graphics/SVG/1.1/DTD/svg11.dtd"><svg t="1644577025571" class="icon" viewBox="0 0 1024 1024" version="1.1" xmlns="http://www.w3.org/2000/svg" p-id="1381" xmlns:xlink="http://www.w3.org/1999/xlink" width="200" height="200"><defs><style type="text/css"></style></defs><path d="M247.15101821 220.66612047v556.18286132h556.18286132a26.48489846 26.48489846 0 1 1 0 52.96979621H247.15101821a52.96979621 52.96979621 0 0 1-52.96979621-52.96979621V220.66612047a26.48489846 26.48489846 0 1 1 52.96979622 0z m212.09106445 148.79215733l178.98494227 108.24377908 90.41944221-164.0474595a25.21362305 25.21362305 0 0 1 35.27788445-9.90535171c12.36844733 7.46874139 16.60603135 24.02180283 9.45510864 36.97291763l-116.26870333 210.92572956-178.95845695-108.24377909-103.34407242 187.48659416a25.21362305 25.21362305 0 0 1-35.27788444 9.9053517c-12.36844733-7.46874139-16.60603135-24.02180283-9.45510865-36.97291761l129.16684822-234.36486422z" fill="#333333" p-id="1382"></path></svg>