<?xml version="1.0" standalone="no"?><!DOCTYPE svg PUBLIC "-//W3C//DTD SVG 1.1//EN" "http://www.w3.org/Graphics/SVG/1.1/DTD/svg11.dtd"><svg t="1644577034374" class="icon" viewBox="0 0 1024 1024" version="1.1" xmlns="http://www.w3.org/2000/svg" p-id="1726" xmlns:xlink="http://www.w3.org/1999/xlink" width="200" height="200"><defs><style type="text/css"></style></defs><path d="M358.57324199 220.48915941v46.02802752h-61.37070296a38.35668921 38.35668921 0 0 0-38.27997689 35.84049032L258.84584861 304.87387614v506.30830277a38.35668921 38.35668921 0 0 0 35.84049152 38.27997567L297.20253903 849.53886811h429.59492194a38.35668921 38.35668921 0 0 0 38.27997689-35.84049152L765.15415139 811.18217891V304.87387614a38.35668921 38.35668921 0 0 0-35.84049152-38.27997567L726.79746097 266.51718693h-61.37070296v-46.02802752h61.37070296a84.38471673 84.38471673 0 0 1 84.32334712 80.99398603L811.18217891 304.87387614v506.30830277a84.38471673 84.38471673 0 0 1-80.99398602 84.3233459L726.79746097 895.56689564H297.20253903a84.38471673 84.38471673 0 0 1-84.32334712-80.99398604L212.81782109 811.18217891V304.87387614a84.38471673 84.38471673 0 0 1 80.99398602-84.3233459L297.20253903 220.48915941h61.37070296z" fill="#333333" p-id="1727"></path><path d="M650.08408257 442.95795871a23.01401376 23.01401376 0 0 1 2.20934478 45.92062859L650.08408257 488.98598624H373.91591743a23.01401376 23.01401376 0 0 1-2.20934478-45.92062859L373.91591743 442.95795871h276.16816514zM650.08408257 596.38471673a23.01401376 23.01401376 0 0 1 2.20934478 45.92062858L650.08408257 642.41274425H373.91591743a23.01401376 23.01401376 0 0 1-2.20934478-45.92062859L373.91591743 596.38471673h276.16816514zM650.08408257 749.81147474a23.01401376 23.01401376 0 0 1 2.20934478 45.92062858L650.08408257 795.83950226H373.91591743a23.01401376 23.01401376 0 0 1-2.20934478-45.92062859L373.91591743 749.81147474h276.16816514zM435.28662038 143.77578101l-2.20934476 0.10739773A23.01401376 23.01401376 0 0 0 412.27260662 166.78979478v23.01401376H373.91591743a38.35668921 38.35668921 0 0 0-38.35668921 38.3566892v107.39873048a38.35668921 38.35668921 0 0 0 38.35668921 38.35668921h276.16816514a38.35668921 38.35668921 0 0 0 38.35668921-38.35668921v-107.39873048l-0.07671353-2.51619889A38.35668921 38.35668921 0 0 0 650.08408257 189.80380854h-38.35668919V166.78979478a23.01401376 23.01401376 0 0 0-23.01401376-23.01401377H435.28662038z m130.41274548 46.02802753V212.81782109l0.10739771 2.20934599A23.01401376 23.01401376 0 0 0 588.71337962 235.83183485h53.69936463v92.05605505h-260.8254885v-92.05605505H435.28662038l2.209346-0.10739772A23.01401376 23.01401376 0 0 0 458.30063414 212.81782109v-23.01401255h107.39873172z" fill="#333333" p-id="1728"></path></svg>